<svg width="20" height="20" viewBox="0 0 20 20" fill="none" xmlns="http://www.w3.org/2000/svg">
<g id="email 1">
<g id="Group">
<g id="Group_2">
<path id="Vector" d="M1.75781 2.96875H18.2422C19.2095 2.96875 20 3.75582 20 4.72656V15.2734C20 16.2445 19.2089 17.0312 18.2422 17.0312H1.75781C0.790546 17.0312 0 16.2442 0 15.2734V4.72656C0 3.75559 0.790937 2.96875 1.75781 2.96875ZM2.02773 4.14062C2.59605 4.71082 9.27168 11.4082 9.54594 11.6834C9.775 11.9131 10.2249 11.9133 10.4541 11.6834L17.9723 4.14062H2.02773ZM18.8281 15.058V4.94199L13.7865 10L18.8281 15.058ZM17.9723 15.8594L12.9592 10.83L11.284 12.5107C10.5975 13.1994 9.40219 13.1991 8.71594 12.5107L7.04074 10.83L2.02773 15.8594H17.9723ZM1.17188 15.058L6.21348 10L1.17188 4.94199V15.058Z" fill="#EF7008"/>
</g>
</g>
</g>
</svg>
