<svg width="20" height="20" viewBox="0 0 20 20" fill="none" xmlns="http://www.w3.org/2000/svg">
<g id="telephone-call 1" clip-path="url(#clip0_21_643)">
<g id="Group">
<path id="Vector" d="M0.546346 8.48401C0.193015 7.52961 -0.062845 6.5549 0.0143193 5.51927C0.0630546 4.88165 0.30267 4.33744 0.769717 3.8907C1.27738 3.41147 1.75661 2.90787 2.25614 2.42052C2.90595 1.77884 3.72226 1.7829 4.37207 2.42052C4.77414 2.81446 5.17214 3.21653 5.57015 3.6186C5.95597 4.00442 6.34585 4.39024 6.73167 4.78012C7.4099 5.46648 7.41397 6.26655 6.73573 6.94884C6.24838 7.4362 5.76509 7.92761 5.26961 8.40684C5.13965 8.53274 5.12747 8.63834 5.19651 8.79673C5.52141 9.57649 5.99252 10.271 6.52048 10.9208C7.58454 12.2285 8.78668 13.39 10.2203 14.2876C10.529 14.4784 10.8661 14.6206 11.1869 14.7952C11.3534 14.8846 11.4631 14.8561 11.5971 14.7181C12.0804 14.2185 12.5758 13.7271 13.0713 13.2357C13.7211 12.594 14.5334 12.59 15.1832 13.2357C15.9792 14.0236 16.7711 14.8155 17.559 15.6115C18.221 16.2776 18.217 17.0939 17.5509 17.764C17.1001 18.2189 16.6249 18.6494 16.2026 19.1245C15.5853 19.815 14.8055 20.0424 13.9201 19.9937C12.6286 19.9246 11.4387 19.4941 10.2893 18.9377C7.73887 17.699 5.56202 15.9811 3.73851 13.8124C2.39017 12.2041 1.27738 10.4578 0.546346 8.48401ZM19.9999 9.93794C19.9999 4.45928 15.5406 0 10.0619 0V1.89255C14.4968 1.89255 18.1073 5.50303 18.1073 9.93794H19.9999ZM14.5578 9.93794H16.4503C16.4503 6.41682 13.583 3.54956 10.0619 3.54956V5.44211C11.2641 5.44211 12.3931 5.90916 13.2419 6.75796C14.0907 7.60677 14.5578 8.73581 14.5578 9.93794Z" fill="#EF7008"/>
</g>
</g>
<defs>
<clipPath id="clip0_21_643">
<rect width="20" height="20" fill="white"/>
</clipPath>
</defs>
</svg>
